<svg aria-hidden="true" style="position: absolute; width: 0; height: 0; overflow: hidden;" version="1.1" xmlns="http://www.w3.org/2000/svg" xmlns:xlink="http://www.w3.org/1999/xlink">
<defs>
<symbol id="icon-login" viewBox="0 0 32 32">
<path fill="none" stroke="#f4c550" style="stroke: var(--color1, #f4c550)" stroke-linejoin="round" stroke-linecap="round" stroke-miterlimit="4" stroke-width="3.2" d="M20 4h1.6c2.24 0 3.36 0 4.216 0.436 0.753 0.383 1.364 0.995 1.748 1.748 0.436 0.856 0.436 1.976 0.436 4.216v11.2c0 2.24 0 3.36-0.436 4.216-0.384 0.753-0.995 1.364-1.748 1.748-0.856 0.436-1.976 0.436-4.216 0.436h-1.6"></path>
<path fill="none" stroke="#f4c550" style="stroke: var(--color1, #f4c550)" stroke-linejoin="round" stroke-linecap="round" stroke-miterlimit="4" stroke-width="3.2" d="M13.333 9.333l6.667 6.667M20 16l-6.667 6.667M20 16h-16"></path>
</symbol>
<symbol id="icon-logo" viewBox="0 0 32 32">
<path fill="#ffda44" style="fill: var(--color2, #ffda44)" d="M16 32c8.837 0 16-7.163 16-16s-7.163-16-16-16c-8.837 0-16 7.163-16 16s7.163 16 16 16z"></path>
<path fill="#338af3" style="fill: var(--color3, #338af3)" d="M0 16c0-8.836 7.163-16 16-16s16 7.163 16 16z"></path>
</symbol>
<symbol id="icon-close" viewBox="0 0 32 32">
<path stroke="currentColor" stroke-linejoin="round" stroke-linecap="round" stroke-miterlimit="4" stroke-width="2.5" d="M24 8l-16 16"></path>
<path stroke="currentColor" stroke-linejoin="round" stroke-linecap="round" stroke-miterlimit="4" stroke-width="2.5" d="M8 8l16 16"></path>
</symbol>
<symbol id="icon-arrow-select" viewBox="0 0 48 32">
<path stroke-linejoin="round" stroke-linecap="round" stroke-miterlimit="4" stroke-width="8" d="M4 6l20 20 20-20"></path>
</symbol>
<symbol id="icon-heart" viewBox="0 0 38 32">
<path stroke-linejoin="round" stroke-linecap="round" stroke-miterlimit="4" stroke-width="2.9091" d="M32.839 4.355c-0.805-0.805-1.76-1.444-2.812-1.88s-2.179-0.66-3.318-0.66-2.266 0.224-3.318 0.66c-1.052 0.436-2.007 1.075-2.812 1.88l-1.67 1.67-1.67-1.67c-1.626-1.626-3.831-2.539-6.13-2.539s-4.504 0.913-6.13 2.539c-1.626 1.626-2.539 3.831-2.539 6.13s0.913 4.504 2.539 6.13l13.93 13.93 13.93-13.93c0.805-0.805 1.444-1.76 1.88-2.812s0.66-2.179 0.66-3.318-0.224-2.266-0.66-3.318c-0.436-1.052-1.075-2.007-1.88-2.812z"></path>
</symbol>
<symbol id="icon-book-open" viewBox="0 0 32 32">
<path stroke-linejoin="round" stroke-linecap="round" stroke-miterlimit="4" stroke-width="3" d="M29.333 8.267c0-1.493 0-2.24-0.291-2.811-0.256-0.502-0.664-0.91-1.165-1.165-0.571-0.291-1.317-0.291-2.811-0.291h-0.533c-2.987 0-4.48 0-5.621 0.581-1.004 0.511-1.819 1.327-2.331 2.331-0.581 1.141-0.581 2.634-0.581 5.621v15.467l0.133-0.2c0.926-1.389 1.389-2.084 2.001-2.587 0.542-0.445 1.166-0.779 1.837-0.983 0.758-0.23 1.593-0.23 3.262-0.23h1.833c1.494 0 2.24 0 2.811-0.291 0.502-0.256 0.91-0.664 1.165-1.165 0.291-0.57 0.291-1.317 0.291-2.811v-11.467z"></path>
<path stroke-linejoin="round" stroke-linecap="round" stroke-miterlimit="4" stroke-width="3" d="M2.667 8.267c0-1.493 0-2.24 0.291-2.811 0.256-0.502 0.664-0.91 1.165-1.165 0.57-0.291 1.317-0.291 2.811-0.291h0.533c2.987 0 4.48 0 5.621 0.581 1.004 0.511 1.819 1.327 2.331 2.331 0.581 1.141 0.581 2.634 0.581 5.621v15.467l-0.133-0.2c-0.926-1.389-1.389-2.084-2.001-2.587-0.542-0.445-1.166-0.779-1.837-0.983-0.758-0.23-1.593-0.23-3.262-0.23h-1.833c-1.493 0-2.24 0-2.811-0.291-0.502-0.256-0.91-0.664-1.165-1.165-0.291-0.57-0.291-1.317-0.291-2.811v-11.467z"></path>
</symbol>
<symbol id="icon-rating" viewBox="0 0 34 32">
<path fill="#ffc531" style="fill: var(--color1, #ffc531); stroke: var(--color1, #ffc531)" stroke="#ffc531" stroke-linejoin="miter" stroke-linecap="butt" stroke-miterlimit="4" stroke-width="2.56" d="M20.906 10.021c0.34 0.643 0.958 1.093 1.675 1.217l8.106 1.4-5.733 5.904c-0.507 0.522-0.743 1.249-0.64 1.969l1.171 8.144-7.383-3.629-0.25-0.106c-0.508-0.18-1.063-0.18-1.571 0l-0.25 0.106-7.385 3.629 1.173-8.144c0.104-0.72-0.133-1.447-0.64-1.969l-5.735-5.904 8.108-1.4c0.717-0.124 1.335-0.573 1.675-1.217l3.84-7.277 3.84 7.277z"></path>
</symbol>
<symbol id="icon-settings" viewBox="0 0 20 20">
<path d="M10.323 1.627c0.829 0 1.596 0.439 2.015 1.154l0.821 1.4 0.054 0.069c0.061 0.060 0.144 0.096 0.232 0.097l1.615 0.013 0.154 0.007c0.768 0.057 1.463 0.491 1.851 1.164l0.328 0.571 0.073 0.136c0.315 0.642 0.318 1.395 0.008 2.040l-0.071 0.136-0.803 1.422c-0.057 0.102-0.058 0.227 0 0.329l0.803 1.421 0.071 0.137c0.31 0.645 0.307 1.398-0.008 2.040l-0.073 0.136-0.328 0.571c-0.388 0.673-1.083 1.107-1.851 1.164l-0.154 0.006-1.615 0.014c-0.088 0.001-0.171 0.036-0.232 0.097l-0.054 0.068-0.821 1.401c-0.419 0.715-1.186 1.154-2.015 1.154h-0.647c-0.777-0-1.499-0.386-1.932-1.023l-0.082-0.131-0.821-1.401c-0.045-0.076-0.117-0.13-0.2-0.153l-0.086-0.012-1.615-0.014c-0.777-0.006-1.496-0.398-1.924-1.039l-0.081-0.131-0.328-0.571c-0.411-0.715-0.415-1.594-0.010-2.313l0.802-1.421 0.033-0.080c0.014-0.055 0.014-0.114 0-0.169l-0.033-0.080-0.802-1.422c-0.405-0.718-0.401-1.597 0.010-2.312l0.328-0.571 0.081-0.131c0.427-0.641 1.147-1.034 1.924-1.040l1.615-0.013 0.086-0.012c0.083-0.023 0.155-0.078 0.2-0.154l0.821-1.4 0.082-0.131c0.432-0.637 1.155-1.023 1.932-1.023h0.647zM9.676 2.957c-0.312 0-0.603 0.145-0.792 0.387l-0.074 0.11-0.821 1.4c-0.259 0.443-0.706 0.737-1.206 0.807l-0.217 0.017-1.615 0.013c-0.312 0.003-0.602 0.15-0.789 0.394l-0.074 0.11-0.328 0.571c-0.177 0.308-0.178 0.686-0.004 0.995l0.802 1.421 0.095 0.195c0.161 0.399 0.161 0.847 0 1.246l-0.095 0.196-0.802 1.421c-0.174 0.309-0.173 0.687 0.004 0.995l0.328 0.57 0.074 0.11c0.187 0.244 0.477 0.391 0.789 0.393l1.615 0.014 0.217 0.016c0.5 0.070 0.947 0.365 1.206 0.808l0.821 1.4 0.074 0.109c0.189 0.242 0.48 0.388 0.792 0.388h0.647c0.357 0 0.687-0.189 0.867-0.497l0.821-1.4 0.122-0.181c0.31-0.399 0.788-0.638 1.301-0.643l1.615-0.014 0.132-0.010c0.304-0.043 0.576-0.223 0.731-0.494l0.328-0.57 0.058-0.118c0.1-0.242 0.102-0.515 0.004-0.758l-0.058-0.119-0.803-1.421c-0.287-0.508-0.287-1.13 0-1.638l0.803-1.421 0.058-0.119c0.098-0.243 0.096-0.515-0.004-0.758l-0.058-0.118-0.328-0.571c-0.156-0.271-0.427-0.451-0.731-0.494l-0.132-0.010-1.615-0.013c-0.513-0.004-0.991-0.244-1.301-0.643l-0.122-0.181-0.821-1.4c-0.18-0.308-0.511-0.497-0.867-0.497h-0.647zM11.585 10c-0-0.875-0.71-1.585-1.585-1.585s-1.586 0.71-1.586 1.585c0 0.875 0.711 1.585 1.586 1.585s1.585-0.71 1.585-1.585zM12.914 10c0 1.61-1.304 2.915-2.914 2.915s-2.915-1.305-2.915-2.915c0-1.61 1.305-2.915 2.915-2.915s2.914 1.305 2.914 2.915z"></path>
</symbol>
<symbol id="icon-account" viewBox="0 0 20 20">
<path d="M16.585 10c0-3.637-2.948-6.585-6.585-6.585s-6.585 2.948-6.585 6.585c0 1.953 0.851 3.706 2.201 4.912 1.038-1.267 2.616-2.077 4.384-2.077s3.345 0.81 4.383 2.077c1.351-1.206 2.202-2.959 2.202-4.912zM10 14.165c-1.324 0-2.509 0.593-3.305 1.53 0.971 0.565 2.1 0.89 3.305 0.89s2.332-0.325 3.303-0.89c-0.796-0.936-1.979-1.53-3.303-1.53zM11.835 8.5c0-1.013-0.822-1.835-1.835-1.835s-1.835 0.822-1.835 1.835 0.822 1.835 1.835 1.835c1.013 0 1.835-0.822 1.835-1.835zM17.915 10c0 4.371-3.544 7.915-7.915 7.915s-7.915-3.544-7.915-7.915c0-4.371 3.544-7.915 7.915-7.915s7.915 3.544 7.915 7.915zM13.165 8.5c0 1.748-1.417 3.165-3.165 3.165s-3.165-1.417-3.165-3.165c0-1.748 1.417-3.165 3.165-3.165s3.165 1.417 3.165 3.165z"></path>
</symbol>
    <symbol id="icon-google" viewBox="0 0 32 32">
        <path fill="#ea4335" style="fill: var(--color1, #ea4335)" d="M16 6.333c2.36 0 4.473 0.813 6.14 2.4l4.567-4.567c-2.773-2.58-6.393-4.167-10.707-4.167-6.253 0-11.66 3.587-14.293 8.813l5.32 4.127c1.26-3.793 4.8-6.607 8.973-6.607z"></path>
        <path fill="#4285f4" style="fill: var(--color2, #4285f4)" d="M31.32 16.367c0-1.047-0.1-2.060-0.253-3.033h-15.067v6.013h8.627c-0.387 1.973-1.507 3.653-3.187 4.787l5.153 4c3.007-2.787 4.727-6.907 4.727-11.767z"></path>
        <path fill="#fbbc05" style="fill: var(--color3, #fbbc05)" d="M7.020 19.060c-0.32-0.967-0.507-1.993-0.507-3.060s0.18-2.093 0.507-3.060l-5.32-4.127c-1.087 2.16-1.7 4.6-1.7 7.187s0.613 5.027 1.707 7.187l5.313-4.127z"></path>
        <path fill="#34a853" style="fill: var(--color4, #34a853)" d="M16 32c4.32 0 7.953-1.42 10.593-3.873l-5.153-4c-1.433 0.967-3.28 1.533-5.44 1.533-4.173 0-7.713-2.813-8.98-6.607l-5.32 4.127c2.64 5.233 8.047 8.82 14.3 8.82z"></path>
    </symbol>
</defs>
</svg>
